<mxfile host="app.diagrams.net" agent="Mozilla/5.0 (Macintosh; Intel Mac OS X 10_15_7) AppleWebKit/537.36 (KHTML, like Gecko) Chrome/131.0.0.0 Safari/537.36" version="25.0.3">
  <diagram name="Page-1" id="b5b7bab2-c9e2-2cf4-8b2a-24fd1a2a6d21">
    <mxGraphModel dx="625" dy="436" grid="1" gridSize="10" guides="1" tooltips="1" connect="1" arrows="1" fold="1" page="1" pageScale="1" pageWidth="827" pageHeight="1169" background="none" math="0" shadow="0">
      <root>
        <mxCell id="0" />
        <mxCell id="1" parent="0" />
        <mxCell id="ZH-lz0ErSbzSPzW6kT0E-10" style="edgeStyle=orthogonalEdgeStyle;rounded=0;orthogonalLoop=1;jettySize=auto;html=1;" edge="1" parent="1" source="ZH-lz0ErSbzSPzW6kT0E-8" target="ZH-lz0ErSbzSPzW6kT0E-9">
          <mxGeometry relative="1" as="geometry" />
        </mxCell>
        <mxCell id="ZH-lz0ErSbzSPzW6kT0E-8" value="控件定义互动数据的 typescript interface" style="text;html=1;align=center;verticalAlign=middle;whiteSpace=wrap;rounded=0;" vertex="1" parent="1">
          <mxGeometry x="40" y="10" width="240" height="30" as="geometry" />
        </mxCell>
        <mxCell id="ZH-lz0ErSbzSPzW6kT0E-12" style="edgeStyle=orthogonalEdgeStyle;rounded=0;orthogonalLoop=1;jettySize=auto;html=1;" edge="1" parent="1" source="ZH-lz0ErSbzSPzW6kT0E-9" target="ZH-lz0ErSbzSPzW6kT0E-11">
          <mxGeometry relative="1" as="geometry" />
        </mxCell>
        <mxCell id="ZH-lz0ErSbzSPzW6kT0E-9" value="typescript-json-schema 将 typescript interface 转换成 json schema 文件&amp;nbsp;&lt;div&gt;interact-data-schema.json&lt;/div&gt;" style="text;html=1;align=center;verticalAlign=middle;whiteSpace=wrap;rounded=0;" vertex="1" parent="1">
          <mxGeometry x="40" y="65" width="240" height="45" as="geometry" />
        </mxCell>
        <mxCell id="ZH-lz0ErSbzSPzW6kT0E-11" value="发布至控件市场" style="text;html=1;align=center;verticalAlign=middle;whiteSpace=wrap;rounded=0;" vertex="1" parent="1">
          <mxGeometry x="40" y="140" width="240" height="30" as="geometry" />
        </mxCell>
        <mxCell id="ZH-lz0ErSbzSPzW6kT0E-18" style="edgeStyle=orthogonalEdgeStyle;rounded=0;orthogonalLoop=1;jettySize=auto;html=1;" edge="1" parent="1" source="ZH-lz0ErSbzSPzW6kT0E-16" target="ZH-lz0ErSbzSPzW6kT0E-17">
          <mxGeometry relative="1" as="geometry" />
        </mxCell>
        <mxCell id="ZH-lz0ErSbzSPzW6kT0E-16" value="用户打开学件" style="text;html=1;align=center;verticalAlign=middle;whiteSpace=wrap;rounded=0;" vertex="1" parent="1">
          <mxGeometry x="293" y="10" width="240" height="30" as="geometry" />
        </mxCell>
        <mxCell id="ZH-lz0ErSbzSPzW6kT0E-20" style="edgeStyle=orthogonalEdgeStyle;rounded=0;orthogonalLoop=1;jettySize=auto;html=1;" edge="1" parent="1" source="ZH-lz0ErSbzSPzW6kT0E-17" target="ZH-lz0ErSbzSPzW6kT0E-19">
          <mxGeometry relative="1" as="geometry" />
        </mxCell>
        <mxCell id="ZH-lz0ErSbzSPzW6kT0E-17" value="从控件市场获取控件的相关文件" style="text;html=1;align=center;verticalAlign=middle;whiteSpace=wrap;rounded=0;" vertex="1" parent="1">
          <mxGeometry x="293" y="65" width="240" height="35" as="geometry" />
        </mxCell>
        <mxCell id="ZH-lz0ErSbzSPzW6kT0E-22" style="edgeStyle=orthogonalEdgeStyle;rounded=0;orthogonalLoop=1;jettySize=auto;html=1;" edge="1" parent="1" source="ZH-lz0ErSbzSPzW6kT0E-19" target="ZH-lz0ErSbzSPzW6kT0E-21">
          <mxGeometry relative="1" as="geometry" />
        </mxCell>
        <mxCell id="ZH-lz0ErSbzSPzW6kT0E-19" value="用户操作产生互动数据提交" style="text;html=1;align=center;verticalAlign=middle;whiteSpace=wrap;rounded=0;" vertex="1" parent="1">
          <mxGeometry x="293" y="130" width="240" height="35" as="geometry" />
        </mxCell>
        <mxCell id="ZH-lz0ErSbzSPzW6kT0E-24" style="edgeStyle=orthogonalEdgeStyle;rounded=0;orthogonalLoop=1;jettySize=auto;html=1;" edge="1" parent="1" source="ZH-lz0ErSbzSPzW6kT0E-21" target="ZH-lz0ErSbzSPzW6kT0E-23">
          <mxGeometry relative="1" as="geometry" />
        </mxCell>
        <mxCell id="ZH-lz0ErSbzSPzW6kT0E-21" value="阅读器从控件市场获取互动数据的schema并验证用户操作产生的互动数据" style="text;html=1;align=center;verticalAlign=middle;whiteSpace=wrap;rounded=0;" vertex="1" parent="1">
          <mxGeometry x="293" y="190" width="240" height="35" as="geometry" />
        </mxCell>
        <mxCell id="ZH-lz0ErSbzSPzW6kT0E-23" value="发送至学件后端服务" style="text;html=1;align=center;verticalAlign=middle;whiteSpace=wrap;rounded=0;" vertex="1" parent="1">
          <mxGeometry x="293" y="250" width="240" height="35" as="geometry" />
        </mxCell>
      </root>
    </mxGraphModel>
  </diagram>
</mxfile>
